<svg xmlns="http://www.w3.org/2000/svg" viewBox="0 0 434.29 60"><defs><style>.cls-1{fill:#eae6df;}</style></defs><title>chalk-white-SVG</title><g id="Layer_2" data-name="Layer 2"><g id="Layer_1-2" data-name="Layer 1"><path class="cls-1" d="M91.5,9.94h7.75l15.62,35,15.69-35h7.75V54h-7V23.58H131L117.47,54h-5.21L98.81,23.58H98.5V54h-7Z"/><path class="cls-1" d="M143.51,37.84c0-11.1,8-16.74,15.62-16.74,5.89,0,10,3.22,11.16,5.77h.19V21.72h6.82V54h-6.82V48.81h-.19c-1.18,2.54-5.27,5.77-11.16,5.77C151.51,54.58,143.51,48.93,143.51,37.84Zm16.93,10.54c5.21,0,10.23-3.6,10.23-10.54s-5-10.54-10.23-10.54-10.17,3.6-10.17,10.54S155.29,48.38,160.44,48.38Z"/><path class="cls-1" d="M187,46.14V27.23h-4.46V21.72H187V13.47h6.88v8.25h6.51v5.52h-6.51V44.9c0,1.86,1,3.29,3.53,3.29a8.74,8.74,0,0,0,3-.56V53c-1.18,1-3.29,1.3-5,1.3C190.51,54.33,187,51.91,187,46.14Z"/><path class="cls-1" d="M206,9.94h6.82V26.55c1.74-3,5.15-5.46,10.35-5.46,6.63,0,12.34,4.15,12.34,13.89V54h-6.88V36.1c0-5.64-3.1-8.8-7.87-8.8s-7.94,3.16-7.94,8.8V54H206Z"/><path class="cls-1" d="M241.72,31.95c0-13.58,10.29-22.63,22.63-22.63,5.64,0,12.83,1.92,17.48,9.11L276.75,22a14.58,14.58,0,0,0-12.28-6c-8.68,0-15.56,6.14-15.56,15.93s6.88,16.12,15.56,16.12c6.26,0,11.9-3.29,13.14-11.28H266.15V30.89h18.29c1.55,14.88-8.37,23.68-20.27,23.68C252,54.58,241.72,45.52,241.72,31.95Z"/><path class="cls-1" d="M289.15,37.84c0-10.85,8-16.74,16.18-16.74s17.11,5.83,15.56,19.34H295.6c1.05,5.58,5.46,8.43,11,8.43a12.67,12.67,0,0,0,8.93-3.35l3.22,3.35a16.34,16.34,0,0,1-12.9,5.7C297.09,54.58,289.15,48.56,289.15,37.84Zm25.67-2.48c-.37-5.58-4.84-8.43-9.42-8.43a9.68,9.68,0,0,0-9.86,8.43Z"/><path class="cls-1" d="M326.35,21.72h6.82v4.84c1.74-3,5.15-5.46,10.35-5.46,6.63,0,12.34,4.15,12.34,13.89V54H349V36.1c0-5.64-3.1-8.8-7.87-8.8s-7.94,3.16-7.94,8.8V54h-6.82Z"/><path class="cls-1" d="M362.68,9.94h6.82v6.14h-6.82Zm0,11.78h6.82V54h-6.82Z"/><path class="cls-1" d="M405.83,54H399V49.12c-1.74,3-5.15,5.46-10.35,5.46-6.63,0-12.34-4.15-12.34-13.89v-19h6.88V39.57c0,5.64,3.1,8.8,7.87,8.8s7.94-3.16,7.94-8.8V21.72h6.82Z"/><path class="cls-1" d="M410.79,45.71l5.58-1.55a6.05,6.05,0,0,0,6.08,4.9c2.54,0,5-1.3,5-4.15,0-2-1.36-3.29-4.46-4.53l-3.47-1.3C414.21,37,412,33.74,412,30c0-5.46,4.77-8.87,10.6-8.87,5.52,0,9.55,3,10.66,7.75l-5.39,1.43a5,5,0,0,0-5-3.72c-2.48,0-4.22,1.36-4.22,3.47,0,1.67,1.05,3.1,4,4.15l3.16,1.24c4.46,1.67,8.49,4,8.49,9.49,0,6.45-5.46,9.67-11.78,9.67S411.79,51.41,410.79,45.71Z"/><rect class="cls-1" x="14" y="37.81" width="5" height="21" transform="translate(-29.32 25.82) rotate(-45)"/><rect class="cls-1" x="6" y="45.81" width="21" height="5" transform="translate(-29.32 25.82) rotate(-45)"/><path class="cls-1" d="M0,0V33H33V0ZM27,19H19v8H14V19H6V14h8V6h5v8h8Z"/><rect class="cls-1" x="44" y="47" width="19" height="5"/><circle class="cls-1" cx="53.5" cy="57.5" r="2.5"/><circle class="cls-1" cx="53.5" cy="41.5" r="2.5"/><rect class="cls-1" x="44" y="14" width="19" height="5"/></g></g></svg>