<svg xmlns="http://www.w3.org/2000/svg" viewBox="0 0 342.79 45.26"><defs><style>.cls-1{fill:#fee8ae;}</style></defs><title>LightBrand</title><g id="Layer_2" data-name="Layer 2"><g id="Layer_1-2" data-name="Layer 1"><path class="cls-1" d="M0,.62H7.75l15.62,35L39.06.62h7.75v44h-7V14.26h-.31L26,44.64H20.77L7.32,14.26H7V44.64H0Z"/><path class="cls-1" d="M52,28.52c0-11.1,8-16.74,15.62-16.74,5.89,0,10,3.22,11.16,5.77H79V12.4h6.82V44.64H79V39.49H78.8c-1.18,2.54-5.27,5.77-11.16,5.77C60,45.26,52,39.62,52,28.52ZM68.94,39.06c5.21,0,10.23-3.6,10.23-10.54S74.15,18,68.94,18s-10.17,3.6-10.17,10.54S63.8,39.06,68.94,39.06Z"/><path class="cls-1" d="M95.54,36.83V17.92H91.08V12.4h4.46V4.15h6.88V12.4h6.51v5.52h-6.51V35.59c0,1.86,1,3.29,3.53,3.29a8.74,8.74,0,0,0,3-.56v5.39c-1.18,1-3.29,1.3-5,1.3C99,45,95.54,42.59,95.54,36.83Z"/><path class="cls-1" d="M114.51.62h6.82V17.23c1.74-3,5.15-5.46,10.35-5.46,6.63,0,12.34,4.15,12.34,13.89v19h-6.88V26.78c0-5.64-3.1-8.8-7.87-8.8s-7.94,3.16-7.94,8.8V44.64h-6.82Z"/><path class="cls-1" d="M150.23,22.63C150.23,9.05,160.52,0,172.85,0c5.64,0,12.83,1.92,17.48,9.11l-5.08,3.6A14.58,14.58,0,0,0,173,6.7c-8.68,0-15.56,6.14-15.56,15.93S164.3,38.75,173,38.75c6.26,0,11.9-3.29,13.14-11.28H174.65V21.57h18.29c1.55,14.88-8.37,23.68-20.27,23.68C160.52,45.26,150.23,36.21,150.23,22.63Z"/><path class="cls-1" d="M197.66,28.52c0-10.85,8-16.74,16.18-16.74s17.11,5.83,15.56,19.34H204.1c1.05,5.58,5.46,8.43,11,8.43A12.67,12.67,0,0,0,224,36.21l3.22,3.35a16.34,16.34,0,0,1-12.9,5.7C205.59,45.26,197.66,39.24,197.66,28.52ZM223.32,26c-.37-5.58-4.84-8.43-9.42-8.43A9.68,9.68,0,0,0,204,26Z"/><path class="cls-1" d="M234.85,12.4h6.82v4.84c1.74-3,5.15-5.46,10.35-5.46,6.63,0,12.34,4.15,12.34,13.89v19h-6.88V26.78c0-5.64-3.1-8.8-7.87-8.8s-7.94,3.16-7.94,8.8V44.64h-6.82Z"/><path class="cls-1" d="M271.19.62H278V6.76h-6.82Zm0,11.78H278V44.64h-6.82Z"/><path class="cls-1" d="M314.34,44.64h-6.82V39.8c-1.74,3-5.15,5.46-10.35,5.46-6.63,0-12.34-4.15-12.34-13.89v-19h6.88V30.25c0,5.64,3.1,8.8,7.87,8.8s7.94-3.16,7.94-8.8V12.4h6.82Z"/><path class="cls-1" d="M319.3,36.39l5.58-1.55a6.05,6.05,0,0,0,6.08,4.9c2.54,0,5-1.3,5-4.15,0-2-1.36-3.29-4.46-4.53L328,29.76c-5.33-2-7.56-5.33-7.56-9.11,0-5.46,4.77-8.87,10.6-8.87,5.52,0,9.55,3,10.66,7.75L336.35,21a5,5,0,0,0-5-3.72c-2.48,0-4.22,1.36-4.22,3.47,0,1.67,1.05,3.1,4,4.15l3.16,1.24c4.46,1.67,8.49,4,8.49,9.49,0,6.45-5.46,9.67-11.78,9.67S320.29,42.1,319.3,36.39Z"/></g></g></svg>