<svg xmlns="http://www.w3.org/2000/svg" viewBox="0 0 342.87 46.17"><defs><style>.cls-1{fill:#fee8ae;}</style></defs><title>PP</title><g id="Layer_2" data-name="Layer 2"><g id="Layer_1-2" data-name="Layer 1"><path class="cls-1" d="M0,2H7.78L23.47,36.2,39.22,2H47V45H40V15h-.31L26.09,45H20.85L7.31,15H7V45H0Z"/><path class="cls-1" d="M52,29C52,17.85,60,12.2,67.63,12.2c5.9,0,10,3.23,11.19,5.78H79V13h7V45H79V40h-.19c-1.18,2.55-5.28,5.78-11.19,5.78C60,45.76,52,40.1,52,29ZM69,40c5.21,0,10.23-3.6,10.23-10.54S74.23,18.89,69,18.89s-10.17,3.6-10.17,10.54S63.87,40,69,40Z"/><path class="cls-1" d="M95,37.56V19H91V13h5V5h6v8h7v6h-7V38.19c0,2,1.07,3.57,3.8,3.57a9.31,9.31,0,0,0,3.2-.61v3.59c-1.23,1-3.44,1.36-5.25,1.36C98.63,46.11,95,43.58,95,37.56Z"/><path class="cls-1" d="M115,2h6V18.59c1.76-3,5.22-5.45,10.49-5.45C138.22,13.13,144,17.29,144,27V46h-7V28.12c0-5.64-2.94-8.8-7.47-8.8S122,22.48,122,28.12V46h-7Z"/><path class="cls-1" d="M150.12,23.05C150.12,9.22,160.6,0,173.17,0c5.75,0,13.07,2,17.81,9.28l-5.18,3.66a14.85,14.85,0,0,0-12.51-6.13c-8.84,0-15.85,6.25-15.85,16.23s7,16.42,15.85,16.42c6.38,0,12.13-3.35,13.39-11.49H175V22h18.63c1.58,15.16-8.53,24.13-20.65,24.13C160.6,46.11,150.12,36.88,150.12,23.05Z"/><path class="cls-1" d="M197.73,29.37c0-10.85,8-16.74,16.18-16.74S231,18.46,229.47,32H204.18c1.05,5.58,5.46,8.43,11,8.43a12.67,12.67,0,0,0,8.93-3.35l3.22,3.35a16.34,16.34,0,0,1-12.9,5.7C205.67,46.11,197.73,40.1,197.73,29.37ZM223.4,27c-.37-5.58-4.84-8.43-9.42-8.43A9.68,9.68,0,0,0,204.12,27Z"/><path class="cls-1" d="M235,13h7v4.8c1.76-3,5.22-5.42,10.49-5.42,6.72,0,12.51,4.12,12.51,13.78V45h-7V27.12c0-5.64-3.14-8.8-8-8.8s-8,3.16-8,8.8V45h-7Z"/><path class="cls-1" d="M271,2h7V8h-7Zm0,11h7V45h-7Z"/><path class="cls-1" d="M315,45h-7v-4.8c-1.76,3-5.22,5.42-10.49,5.42-6.72,0-12.51-4.12-12.51-13.78V13h7V30.83c0,5.64,3.14,8.8,8,8.8s8-3.16,8-8.8V13h7Z"/><path class="cls-1" d="M319.38,37.31,325,35.76a6.05,6.05,0,0,0,6.08,4.9c2.54,0,5-1.3,5-4.15,0-2-1.36-3.29-4.46-4.53l-3.47-1.3c-5.33-2-7.56-5.33-7.56-9.11,0-5.46,4.77-8.87,10.6-8.87,5.52,0,9.55,3,10.66,7.75l-5.39,1.43a5,5,0,0,0-5-3.72c-2.48,0-4.22,1.36-4.22,3.47,0,1.67,1.05,3.1,4,4.15L334.38,27c4.46,1.67,8.49,4,8.49,9.49,0,6.45-5.46,9.67-11.78,9.67S320.37,43,319.38,37.31Z"/></g></g></svg>